<?xml version="1.0" encoding="utf-8"?>
<!-- Uploaded to: SVG Repo, www.svgrepo.com, Generator: SVG Repo Mixer Tools -->
<svg fill="#000000" width="800px" height="800px" viewBox="0 0 32 32" version="1.1" xmlns="http://www.w3.org/2000/svg">
<title>gear-hammer</title>
<path d="M30.323 20.301l0.598-3.625-1.316-0.217c0.038-1.175-0.080-2.328-0.337-3.435l1.24-0.467-1.294-3.439-1.261 0.475c-0.555-1.005-1.237-1.936-2.028-2.769l0.885-1.078-2.84-2.331-0.918 1.119c-0.961-0.569-2.005-1.023-3.116-1.341l0.248-1.502-3.625-0.598-0.261 1.579c-1.123-0.006-2.223 0.13-3.28 0.393l-0.589-1.564-3.439 1.294 0.617 1.64c-0.937 0.536-1.807 1.183-2.589 1.927l-1.401-1.15-2.331 2.84 1.442 1.184c-0.533 0.9-0.965 1.873-1.279 2.906l-1.876-0.31-0.598 3.625 1.895 0.313c-0.023 1.075 0.083 2.131 0.308 3.149l-1.803 0.679 1.294 3.439 1.787-0.672c0.504 0.937 1.117 1.812 1.827 2.605l-1.183 1.442 2.84 2.331 1.145-1.396c0.898 0.569 1.873 1.035 2.912 1.381l-0.283 1.715 3.625 0.598 0.27-1.639c1.126 0.055 2.233-0.034 3.301-0.252l0.558 1.484 3.439-1.294-0.532-1.413c1.006-0.521 1.943-1.168 2.786-1.922l1.119 0.918 2.331-2.84-1.072-0.88c0.607-0.958 1.098-2.003 1.45-3.121l1.335 0.22zM25.923 21.881c-0.12 0.197-0.245 0.39-0.375 0.578-0.001 0.001-0.002 0.003-0.003 0.004-0.039 0.056-0.079 0.112-0.119 0.168-0.008 0.011-0.016 0.022-0.024 0.033-0.039 0.053-0.078 0.106-0.118 0.159-0.008 0.011-0.017 0.022-0.026 0.034-0.041 0.054-0.082 0.108-0.124 0.161-0.003 0.004-0.007 0.009-0.010 0.013-0.185 0.234-0.379 0.46-0.582 0.678-0.005 0.005-0.010 0.011-0.015 0.017-0.047 0.050-0.094 0.1-0.142 0.149-0.008 0.008-0.016 0.016-0.023 0.024-0.048 0.049-0.097 0.099-0.146 0.147-0.005 0.004-0.009 0.009-0.013 0.013-0.215 0.212-0.438 0.416-0.668 0.61v0c-0.587 0.495-1.223 0.929-1.898 1.297v-0c-0.192 0.104-0.387 0.203-0.584 0.296-0.013 0.006-0.026 0.013-0.039 0.019-0.057 0.026-0.114 0.052-0.171 0.078-0.017 0.007-0.034 0.015-0.050 0.022-0.057 0.025-0.115 0.050-0.173 0.075-0.014 0.006-0.028 0.012-0.042 0.017-0.341 0.142-0.689 0.268-1.044 0.376-0.007 0.002-0.013 0.004-0.020 0.006-0.069 0.021-0.138 0.041-0.208 0.061-0.005 0.001-0.010 0.003-0.015 0.004-0.368 0.104-0.743 0.189-1.124 0.255v0c-0.722 0.125-1.464 0.181-2.217 0.162v0c-0.183-0.005-0.366-0.014-0.55-0.027-0.020-0.002-0.040-0.003-0.060-0.005-0.051-0.004-0.103-0.008-0.155-0.013-0.047-0.004-0.095-0.009-0.142-0.014-0.051-0.005-0.102-0.011-0.153-0.017-0.058-0.007-0.116-0.014-0.173-0.022-0.029-0.004-0.058-0.008-0.087-0.012-0.079-0.011-0.158-0.023-0.237-0.036-0.004-0.001-0.009-0.001-0.013-0.002-0.018-0.003-0.035-0.006-0.053-0.009-0.074-0.012-0.147-0.025-0.22-0.039-0.045-0.009-0.090-0.018-0.135-0.027s-0.090-0.018-0.134-0.027c-0.055-0.012-0.109-0.024-0.164-0.037-0.033-0.008-0.067-0.015-0.1-0.023-0.062-0.015-0.123-0.030-0.184-0.046-0.024-0.006-0.049-0.012-0.073-0.019-0.067-0.018-0.135-0.036-0.201-0.055-0.017-0.005-0.034-0.010-0.051-0.014-0.072-0.021-0.145-0.043-0.216-0.065-0.010-0.003-0.020-0.006-0.030-0.009-0.077-0.024-0.154-0.049-0.23-0.075-0.003-0.001-0.006-0.002-0.009-0.003-0.081-0.027-0.161-0.055-0.24-0.084v0c-0.68-0.247-1.326-0.556-1.933-0.919l0-0c-0.012-0.007-0.024-0.015-0.036-0.022-0.060-0.036-0.119-0.072-0.178-0.11-0.029-0.018-0.058-0.037-0.088-0.056-0.042-0.027-0.085-0.055-0.127-0.082-0.032-0.021-0.064-0.043-0.097-0.065-0.038-0.026-0.076-0.051-0.113-0.077-0.034-0.023-0.068-0.047-0.101-0.071-0.035-0.025-0.069-0.050-0.103-0.075s-0.070-0.051-0.105-0.077c-0.030-0.023-0.060-0.045-0.090-0.068-0.146-0.111-0.289-0.225-0.429-0.343-0.016-0.013-0.032-0.027-0.048-0.040-0.046-0.039-0.091-0.078-0.136-0.118-0.016-0.014-0.031-0.027-0.047-0.041-0.046-0.041-0.092-0.083-0.138-0.125-0.012-0.011-0.023-0.021-0.034-0.032-0.050-0.046-0.099-0.092-0.148-0.139-0-0-0.001-0.001-0.001-0.001-0.276-0.265-0.538-0.543-0.786-0.834v0c-0.457-0.536-0.863-1.113-1.214-1.724v0c-0.149-0.259-0.287-0.524-0.415-0.795-0.005-0.010-0.009-0.020-0.014-0.029-0.029-0.061-0.057-0.122-0.084-0.183-0.005-0.011-0.010-0.022-0.014-0.033-0.028-0.063-0.056-0.127-0.083-0.191-0.001-0.003-0.002-0.006-0.004-0.009-0.117-0.277-0.223-0.56-0.318-0.847-0.002-0.005-0.003-0.009-0.005-0.014-0.022-0.067-0.044-0.135-0.064-0.203-0.003-0.009-0.005-0.018-0.008-0.027-0.021-0.068-0.041-0.136-0.061-0.205-0.001-0.004-0.002-0.008-0.003-0.012-0.083-0.294-0.155-0.593-0.215-0.895v0c-0.134-0.682-0.207-1.382-0.212-2.094-0.002-0.223 0.004-0.446 0.015-0.671 0.001-0.022 0.002-0.044 0.003-0.066 0.003-0.054 0.007-0.108 0.011-0.163 0.003-0.037 0.005-0.073 0.008-0.109 0.004-0.047 0.008-0.095 0.013-0.143 0.004-0.045 0.009-0.090 0.014-0.136 0.004-0.041 0.009-0.083 0.014-0.124 0.007-0.055 0.014-0.111 0.021-0.167 0.004-0.033 0.008-0.065 0.013-0.098 0.013-0.089 0.026-0.179 0.041-0.268 0.014-0.087 0.030-0.173 0.046-0.259 0.005-0.026 0.010-0.052 0.015-0.077 0.012-0.063 0.025-0.126 0.039-0.188 0.005-0.026 0.011-0.052 0.017-0.077 0.018-0.082 0.037-0.164 0.057-0.246 0.001-0.003 0.001-0.005 0.002-0.008 0.020-0.084 0.042-0.167 0.064-0.25 0.007-0.025 0.014-0.050 0.021-0.075 0.017-0.061 0.034-0.121 0.052-0.181 0.007-0.025 0.015-0.051 0.022-0.076 0.023-0.077 0.047-0.154 0.072-0.231 0.002-0.005 0.003-0.010 0.005-0.015 0.223-0.684 0.508-1.335 0.847-1.948v0c0.038-0.068 0.076-0.136 0.115-0.203 0-0 0-0.001 0-0.001 0.191-0.329 0.398-0.648 0.619-0.954 0.007-0.009 0.013-0.018 0.020-0.028 0.038-0.052 0.077-0.105 0.116-0.156 0.011-0.014 0.022-0.028 0.032-0.043 0.038-0.050 0.076-0.099 0.114-0.148 0.011-0.014 0.023-0.029 0.034-0.043 0.122-0.153 0.248-0.303 0.377-0.449 0.016-0.018 0.031-0.036 0.047-0.053 0.033-0.036 0.066-0.072 0.099-0.108 0.024-0.027 0.049-0.053 0.073-0.079 0.031-0.033 0.062-0.066 0.093-0.098 0.028-0.029 0.055-0.057 0.083-0.086 0.030-0.031 0.060-0.061 0.091-0.092s0.061-0.061 0.092-0.091c0.029-0.028 0.058-0.056 0.087-0.084 0.036-0.035 0.073-0.069 0.11-0.103 0.024-0.022 0.048-0.045 0.072-0.067v0c0.539-0.492 1.123-0.931 1.745-1.311v0c0.106-0.065 0.214-0.128 0.322-0.189 0.031-0.017 0.061-0.035 0.092-0.052 0.042-0.023 0.084-0.046 0.127-0.069 0.030-0.016 0.061-0.033 0.092-0.049 0.044-0.023 0.088-0.046 0.132-0.068 0.028-0.014 0.057-0.029 0.086-0.043 0.047-0.023 0.093-0.046 0.14-0.069 0.023-0.011 0.047-0.022 0.070-0.033 0.252-0.12 0.509-0.23 0.771-0.331 0.011-0.004 0.022-0.009 0.033-0.013 0.063-0.024 0.126-0.048 0.19-0.071 0.011-0.004 0.022-0.008 0.033-0.012 0.066-0.024 0.132-0.047 0.199-0.069 0.003-0.001 0.007-0.002 0.010-0.003 0.363-0.122 0.733-0.226 1.11-0.312v0c0.728-0.165 1.479-0.259 2.244-0.276 0.082-0.002 0.165-0.003 0.248-0.003 0.007 0 0.014 0 0.021 0 0.078 0 0.155 0.001 0.233 0.003 0.014 0 0.027 0.001 0.041 0.001 0.072 0.002 0.145 0.004 0.217 0.008 0.021 0.001 0.041 0.002 0.062 0.003 0.067 0.003 0.133 0.007 0.2 0.012 0.028 0.002 0.057 0.004 0.085 0.006 0.060 0.005 0.12 0.009 0.181 0.015 0.037 0.003 0.075 0.007 0.112 0.011 0.052 0.005 0.104 0.011 0.157 0.016 0.051 0.006 0.102 0.013 0.153 0.019 0.040 0.005 0.079 0.010 0.119 0.015 0.092 0.013 0.184 0.027 0.276 0.042 0.084 0.014 0.168 0.029 0.252 0.045 0.026 0.005 0.053 0.010 0.079 0.015 0.060 0.012 0.121 0.024 0.181 0.037 0.044 0.009 0.087 0.019 0.13 0.029 0.052 0.012 0.103 0.023 0.155 0.036 0.049 0.012 0.098 0.024 0.147 0.036 0.021 0.005 0.041 0.011 0.062 0.016 0.178 0.046 0.354 0.096 0.528 0.15v0c0.759 0.236 1.479 0.547 2.154 0.924v0c0.058 0.033 0.116 0.066 0.173 0.099 0.014 0.008 0.028 0.016 0.043 0.025 0.054 0.032 0.108 0.064 0.162 0.097 0.016 0.010 0.033 0.020 0.049 0.030 0.054 0.033 0.107 0.067 0.16 0.101 0.013 0.008 0.026 0.017 0.039 0.025 0.244 0.158 0.481 0.325 0.71 0.5 0.009 0.007 0.018 0.013 0.027 0.020 0.052 0.040 0.103 0.080 0.154 0.12 0.013 0.010 0.025 0.020 0.038 0.030 0.050 0.040 0.101 0.081 0.15 0.123 0.010 0.009 0.020 0.017 0.031 0.026 0.283 0.236 0.553 0.486 0.81 0.748 0.008 0.008 0.015 0.015 0.023 0.023 0.047 0.048 0.094 0.097 0.14 0.146 0.007 0.008 0.015 0.016 0.022 0.024 0.048 0.051 0.095 0.102 0.142 0.154v0c0.532 0.589 1.002 1.232 1.4 1.918h-0c0.004 0.006 0.007 0.013 0.011 0.019 0.038 0.065 0.075 0.131 0.111 0.196 0.016 0.028 0.031 0.057 0.046 0.086 0.024 0.045 0.049 0.090 0.072 0.136 0.017 0.033 0.035 0.067 0.052 0.1 0.021 0.041 0.042 0.082 0.062 0.123 0.018 0.036 0.036 0.072 0.053 0.109 0.018 0.038 0.036 0.077 0.054 0.115s0.037 0.078 0.055 0.117c0.015 0.033 0.030 0.067 0.045 0.1 0.075 0.169 0.146 0.34 0.212 0.513 0.007 0.017 0.014 0.035 0.020 0.052 0.022 0.057 0.043 0.115 0.064 0.173 0.006 0.018 0.013 0.036 0.019 0.053 0.021 0.060 0.042 0.12 0.063 0.181 0.004 0.013 0.009 0.026 0.013 0.040 0.143 0.431 0.262 0.872 0.353 1.321v0c0.156 0.77 0.234 1.564 0.225 2.372v0c-0 0.010-0.001 0.020-0.001 0.030-0.001 0.075-0.003 0.149-0.006 0.224-0.001 0.029-0.002 0.059-0.004 0.088-0.002 0.059-0.005 0.118-0.009 0.177-0.002 0.029-0.003 0.058-0.005 0.087-0.005 0.081-0.011 0.162-0.018 0.243-0.001 0.011-0.002 0.022-0.003 0.033-0.007 0.078-0.015 0.157-0.024 0.235-0.003 0.028-0.006 0.056-0.010 0.084-0.007 0.062-0.015 0.124-0.023 0.185-0.004 0.027-0.007 0.054-0.011 0.081-0.012 0.085-0.025 0.171-0.039 0.257-0 0.001-0 0.002-0 0.003s-0.001 0.003-0.001 0.005c-0.014 0.087-0.030 0.174-0.047 0.261-0.006 0.034-0.013 0.067-0.020 0.1-0.011 0.054-0.021 0.108-0.033 0.161-0.009 0.042-0.018 0.083-0.027 0.124-0.010 0.044-0.020 0.087-0.030 0.131-0.011 0.047-0.023 0.094-0.034 0.14-0.009 0.035-0.018 0.070-0.027 0.105-0.014 0.053-0.028 0.106-0.042 0.158-0.006 0.021-0.012 0.042-0.018 0.063-0.061 0.217-0.129 0.431-0.202 0.642v0c-0.263 0.757-0.602 1.472-1.007 2.14zM17.896 5.936c-5.558-0.917-10.808 2.845-11.725 8.403s2.845 10.808 8.403 11.725 10.808-2.845 11.725-8.403-2.845-10.808-8.403-11.725zM21.142 17.72l-3.081-2.528-6.511 7.934-1.618-1.328 6.511-7.934-4.137-3.395 5.934-2.072 6.305 5.174-3.404 4.148z"></path>
</svg>