<?xml version="1.0" encoding="utf-8"?><!-- Uploaded to: SVG Repo, www.svgrepo.com, Generator: SVG Repo Mixer Tools -->
<svg version="1.1" id="Uploaded to svgrepo.com" xmlns="http://www.w3.org/2000/svg" xmlns:xlink="http://www.w3.org/1999/xlink" 
	 width="800px" height="800px" viewBox="0 0 32 32" xml:space="preserve">
<style type="text/css">
	.linesandangles_een{fill:#111918;}
</style>
<path class="linesandangles_een" d="M16,4C9.935,4,5,8.935,5,15c0,3.36,1.494,6.461,4.113,8.563L10.219,28h11.562l1.105-4.437
	C25.506,21.461,27,18.36,27,15C27,8.935,22.065,4,16,4z M21.398,22.188L21.115,22.4L20.219,26H19v-3h-2v3h-2v-3h-2v3h-1.219
	l-0.896-3.6l-0.283-0.213C8.312,20.466,7,17.846,7,15c0-4.963,4.037-9,9-9s9,4.037,9,9C25,17.846,23.687,20.466,21.398,22.188z
	 M15,15.5c0,1.933-1.343,3.5-3,3.5s-3-1.567-3-3.5s1.343-3.5,3-3.5S15,13.567,15,15.5z M23,15.5c0,1.933-1.343,3.5-3,3.5
	s-3-1.567-3-3.5s1.343-3.5,3-3.5S23,13.567,23,15.5z"/>
</svg>