<?xml version="1.0" encoding="utf-8"?>
<!-- Uploaded to: SVG Repo, www.svgrepo.com, Generator: SVG Repo Mixer Tools -->
<svg fill="#000000" width="800px" height="800px" viewBox="0 0 32 32" version="1.1" xmlns="http://www.w3.org/2000/svg">
<title>monster-skull</title>
<path d="M20.624 5.42c-0.707-0.58-1.541-1.011-2.519-1.267-0.187-0.231-0.411-0.43-0.663-0.588-0.623-1.288-1.424-2.596-1.424-2.596s-0.8 1.307-1.423 2.595c-0.215 0.135-0.41 0.299-0.578 0.487-1.162 0.232-2.132 0.695-2.939 1.351-6.017-0.988-11.433 5.057-9.516 11.428 0.771 2.562 4.546 4.208 6.506 3.134-3.694 0.006-4.792-4.007-3.65-6.791 0.73-1.779 2.011-2.784 3.783-2.794-0.587 2.2-0.797 4.817-0.797 7.625h4.405c-0.105 0.75-0.151 1.563-0.157 2.413-0.102 0.919 0.559 4.765 0.559 4.765s1.887-3.121 2.23-4.136c0.384 1.498 1.424 4.285 1.424 4.285s1.030-2.76 1.418-4.263c0.362 1.037 2.222 4.114 2.222 4.114s0.682-3.963 0.554-4.805c-0.007-0.836-0.053-1.635-0.157-2.374h4.372c0-2.808-0.21-5.425-0.796-7.624 1.841-0.041 3.168 0.969 3.917 2.793 1.142 2.784 0.045 6.797-3.65 6.791 1.96 1.073 5.735-0.572 6.506-3.134 1.929-6.41-3.566-12.49-9.627-11.409zM11.99 11.264c0.555 0.59 1.343 1.012 2.444 1.201 0 0.002 0 0.003 0 0.005 0 0.839-0.68 1.519-1.519 1.519s-1.519-0.68-1.519-1.519c0-0.491 0.233-0.928 0.595-1.205zM20.553 12.469c-0 0.839-0.68 1.519-1.519 1.519s-1.519-0.68-1.519-1.519c0-0.019 0.001-0.038 0.001-0.057 1.026-0.222 1.759-0.663 2.274-1.26 0.11 0.063 0.212 0.14 0.302 0.228l0.001 0.003c0.001-0 0.001-0.001 0.002-0.001 0.283 0.276 0.459 0.661 0.459 1.087zM7.131 28.033c-0.737 2.75 3.066 3.588 3.758 1.007 0.278-1.038-0.252-6.577-0.252-6.577s-3.228 4.532-3.506 5.57zM20.954 22.463c0 0-0.529 5.539-0.252 6.577 0.692 2.581 4.495 1.743 3.758-1.007-0.278-1.038-3.506-5.57-3.506-5.57zM17.467 23.943c0 0-1.025 3.982-0.942 4.772 0.207 1.964 3.080 1.79 2.859-0.302-0.083-0.79-1.917-4.47-1.917-4.47zM12.318 28.413c-0.221 2.092 2.652 2.266 2.859 0.302 0.083-0.79-0.942-4.772-0.942-4.772s-1.834 3.68-1.917 4.47z"></path>
</svg>