<?xml version="1.0" encoding="iso-8859-1"?>
<!-- Uploaded to: SVG Repo, www.svgrepo.com, Generator: SVG Repo Mixer Tools -->
<!DOCTYPE svg PUBLIC "-//W3C//DTD SVG 1.1//EN" "http://www.w3.org/Graphics/SVG/1.1/DTD/svg11.dtd">
<svg fill="#000000" height="800px" width="800px" version="1.1" id="Capa_1" xmlns="http://www.w3.org/2000/svg" xmlns:xlink="http://www.w3.org/1999/xlink" 
	 viewBox="0 0 465 465" xml:space="preserve">
<g>
	<path d="M396.902,68.098C352.989,24.185,294.603,0,232.5,0S112.011,24.185,68.098,68.098C24.184,112.012,0,170.397,0,232.5
		s24.184,120.488,68.098,164.402C112.011,440.815,170.397,465,232.5,465s120.489-24.185,164.402-68.098
		C440.816,352.988,465,294.603,465,232.5S440.816,112.012,396.902,68.098z M232.5,450C112.57,450,15,352.43,15,232.5
		S112.57,15,232.5,15S450,112.57,450,232.5S352.43,450,232.5,450z"/>
	<path d="M412.439,300.259H287.35c-0.116-0.002-0.231-0.002-0.347,0H255.75c-0.022,0-0.044,0-0.066,0h-40.869l-4.874-15h55.417
		c0.008,0,0.017,0.002,0.025,0.002c0.008,0,0.016-0.002,0.025-0.002h31.494c0.008,0,0.017,0.002,0.025,0.002
		c0.008,0,0.016-0.002,0.025-0.002h74.839c3.249,0,6.129-2.092,7.133-5.183c1.004-3.09-0.096-6.476-2.725-8.385l-60.611-44.037
		c-0.016-0.012-0.032-0.023-0.049-0.035l-25.473-18.507c-0.015-0.011-0.03-0.022-0.046-0.033l-53.015-38.518
		c-0.02-0.015-0.041-0.03-0.062-0.045l-25.458-18.496c-0.02-0.015-0.041-0.03-0.061-0.044l-60.603-44.031
		c-2.628-1.91-6.188-1.91-8.816,0c-2.629,1.909-3.729,5.295-2.725,8.385l21.451,66.019l-12.76,9.271L112.469,82.354
		c-0.775-2.388-2.694-4.229-5.111-4.905c-2.419-0.678-5.013-0.1-6.915,1.539C55.675,117.532,30,173.484,30,232.5
		c0,15.714,1.816,31.391,5.397,46.595c0.576,2.443,2.336,4.438,4.689,5.312c0.848,0.314,1.731,0.469,2.61,0.469
		c1.562,0,3.109-0.488,4.409-1.433l101.186-73.516c0.1-0.068,0.197-0.14,0.292-0.213l25.221-18.324
		c0.07-0.048,0.137-0.099,0.205-0.148l32.97-23.954l12.76,9.271l-44.758,32.52c-0.018,0.013-0.036,0.025-0.054,0.039l-25.467,18.503
		c-0.017,0.012-0.034,0.024-0.051,0.036l-60.61,44.036c-2.629,1.909-3.729,5.295-2.725,8.385c1.004,3.091,3.884,5.183,7.133,5.183
		h69.417l43.164,132.847c-61.432-8.723-114.194-47.045-141.588-102.847h83.62c4.142,0,7.5-3.357,7.5-7.5s-3.358-7.5-7.5-7.5H52.561
		c-2.51,0-4.854,1.256-6.244,3.346c-1.39,2.089-1.643,4.736-0.674,7.051c14.166,33.829,37.326,63.24,66.979,85.054
		c30.214,22.228,65.93,35.579,103.287,38.61c0.203,0.017,0.405,0.024,0.607,0.024c2.282,0,4.455-1.042,5.883-2.85
		c1.555-1.968,2.023-4.583,1.249-6.968l-48.405-148.976c-0.006-0.02-0.013-0.039-0.019-0.059l-12.631-38.874l12.76-9.271
		l17.093,52.608c0.009,0.029,0.019,0.059,0.028,0.088l9.724,29.927c0.005,0.017,0.011,0.032,0.016,0.049l23.153,71.257
		c1.004,3.091,3.884,5.183,7.133,5.183s6.129-2.092,7.133-5.183l21.45-66.018h15.772l-35.503,109.268
		c-0.775,2.385-0.307,5,1.249,6.968c1.429,1.808,3.601,2.85,5.883,2.85c0.202,0,0.405-0.008,0.607-0.024
		c37.357-3.031,73.073-16.383,103.287-38.61c29.652-21.813,52.813-51.225,66.979-85.054c0.969-2.314,0.716-4.962-0.674-7.051
		C417.292,301.515,414.949,300.259,412.439,300.259z M47.72,264.455C45.913,253.932,45,243.226,45,232.5
		c0-50.825,20.571-99.201,56.803-134.433l33.409,102.821L47.72,264.455z M302.407,236.619l-10.93,33.64h-15.772l13.943-42.911
		L302.407,236.619z M307.248,270.259l7.918-24.37l33.542,24.37H307.248z M173.491,173.078l-12.812-39.43l33.541,24.369
		L173.491,173.078z M157.752,270.259h-41.46l33.542-24.37L157.752,270.259z M232.5,185.828l44.388,32.25l-16.955,52.181h-54.866
		l-16.955-52.182L232.5,185.828z M232.5,354.688l-12.811-39.43h25.623L232.5,354.688z M259.21,418.105l33.417-102.847h108.17
		C373.404,371.061,320.642,409.383,259.21,418.105z"/>
	<path d="M364.557,78.988c-1.902-1.638-4.499-2.216-6.915-1.539c-2.417,0.677-4.336,2.518-5.111,4.905l-35.502,109.264l-12.76-9.271
		l21.451-66.019c1.004-3.09-0.096-6.476-2.725-8.385c-2.628-1.91-6.188-1.91-8.816,0l-56.158,40.802L144.999,66.631
		C171.85,52.449,201.87,45,232.5,45s60.65,7.449,87.501,21.631l-66.39,48.236c-3.351,2.435-4.094,7.125-1.659,10.476
		c2.434,3.352,7.125,4.096,10.476,1.659l75.803-55.074c2.029-1.474,3.188-3.865,3.085-6.371c-0.102-2.506-1.449-4.796-3.591-6.101
		C306.101,40.186,269.714,30,232.5,30s-73.601,10.186-105.225,29.456c-2.142,1.305-3.489,3.595-3.591,6.101
		c-0.102,2.506,1.056,4.897,3.085,6.371l126.84,92.155c0.001,0,0.001,0.001,0.001,0.001l37.433,27.197
		c0.001,0.001,0.002,0.001,0.004,0.002l25.365,18.429c0.098,0.075,0.198,0.148,0.3,0.219l101.182,73.513
		c1.3,0.944,2.847,1.433,4.409,1.433c0.879,0,1.763-0.154,2.61-0.469c2.354-0.874,4.114-2.868,4.689-5.312
		C433.184,263.891,435,248.214,435,232.5C435,173.484,409.325,117.532,364.557,78.988z M304.32,133.647l-12.812,39.43
		l-20.729-15.061L304.32,133.647z M417.28,264.455l-87.492-63.566l33.409-102.821C399.429,133.299,420,181.675,420,232.5
		C420,243.226,419.087,253.932,417.28,264.455z"/>
</g>
</svg>